<?xml version="1.0" encoding="UTF-8" standalone="no"?>
<!-- Created with Inkscape (http://www.inkscape.org/) -->

<svg
   version="1.1"
   id="svg1"
   width="1500"
   height="1278"
   viewBox="0 0 1500 1278"
   sodipodi:docname="Mano Stop.svg"
   inkscape:version="1.4 (86a8ad7, 2024-10-11)"
   xmlns:inkscape="http://www.inkscape.org/namespaces/inkscape"
   xmlns:sodipodi="http://sodipodi.sourceforge.net/DTD/sodipodi-0.dtd"
   xmlns="http://www.w3.org/2000/svg"
   xmlns:svg="http://www.w3.org/2000/svg">
  <defs
     id="defs1" />
  <sodipodi:namedview
     id="namedview1"
     pagecolor="#505050"
     bordercolor="#ffffff"
     borderopacity="1"
     inkscape:showpageshadow="0"
     inkscape:pageopacity="0"
     inkscape:pagecheckerboard="1"
     inkscape:deskcolor="#505050"
     showgrid="false"
     inkscape:zoom="0.43270736"
     inkscape:cx="671.35443"
     inkscape:cy="613.57866"
     inkscape:window-width="1366"
     inkscape:window-height="697"
     inkscape:window-x="-8"
     inkscape:window-y="-8"
     inkscape:window-maximized="1"
     inkscape:current-layer="g1" />
  <g
     inkscape:groupmode="layer"
     inkscape:label="Image"
     id="g1">
    <path
       style="fill:#000000"
       d="m 725.5,980.89818 c -17.14372,-1.73474 -25.03231,-2.80469 -32,-4.34021 -3.85,-0.84846 -9.5875,-2.04418 -12.75,-2.65716 -3.1625,-0.61298 -5.75,-1.51643 -5.75,-2.00766 0,-0.49123 -1.2375,-0.89592 -2.75,-0.89931 -1.5125,-0.003 -4.03894,-0.67839 -5.61431,-1.5 C 665.06032,968.67223 663.10476,968 662.28999,968 c -0.81478,0 -2.67584,-0.63403 -4.1357,-1.40896 -1.45986,-0.77493 -5.12929,-2.39487 -8.15429,-3.59985 -9.49506,-3.7823 -33.38719,-16.00303 -35,-17.90236 -0.75096,-0.88438 -4.20987,-2.96816 -6.75,-4.06647 -1.2375,-0.53507 -2.25,-1.434 -2.25,-1.99761 C 606,938.46114 605.51592,938 604.92426,938 c -1.50205,0 -20.49285,-14.60055 -25.68864,-19.75 -2.35854,-2.3375 -4.49216,-4.25 -4.74138,-4.25 -1.10242,0 -22.46678,-22.6629 -26.26709,-27.86361 -0.94993,-1.29998 -2.51465,-3.08749 -3.47715,-3.97224 -0.9625,-0.88475 -1.75,-2.18362 -1.75,-2.88639 0,-0.70277 -0.3375,-1.28083 -0.75,-1.28459 -0.4125,-0.004 -1.875,-1.69126 -3.25,-3.75 -2.77889,-4.16074 -3.18076,-4.70468 -6.01854,-8.14618 -1.0898,-1.32166 -1.98146,-2.8163 -1.98146,-3.32143 0,-0.50513 -0.5625,-1.54566 -1.25,-2.31228 -2.74898,-3.06537 -3.75,-4.40866 -3.75,-5.0322 0,-0.35933 -2.25,-4.37832 -5,-8.93108 -2.75,-4.55276 -5,-8.77776 -5,-9.38888 C 516,836.50001 515.58575,836 515.07946,836 c -0.5063,0 -1.21706,-1.35 -1.57946,-3 -0.3624,-1.65 -1.02307,-3 -1.46816,-3 -0.44509,0 -1.08567,-1.4625 -1.42352,-3.25 -0.33784,-1.7875 -1.96123,-5.95 -3.60753,-9.25 -1.64629,-3.3 -2.99496,-6.5625 -2.99703,-7.25 -0.002,-0.6875 -0.43337,-1.25 -0.95845,-1.25 -0.52507,0 -1.26341,-1.64563 -1.64073,-3.65697 -0.37733,-2.01133 -1.29495,-4.82383 -2.03916,-6.25 -0.7442,-1.42616 -1.35587,-3.32909 -1.35926,-4.22872 -0.003,-0.89963 -0.67839,-2.92463 -1.5,-4.5 -0.82161,-1.57537 -1.49661,-4.07525 -1.5,-5.55529 -0.003,-1.48004 -0.414,-2.94305 -0.91248,-3.25112 -0.49847,-0.30807 -1.22793,-2.92213 -1.62103,-5.80902 -0.39309,-2.88688 -1.07016,-5.47566 -1.5046,-5.75284 -0.80303,-0.51235 -2.28014,-9.65382 -4.03892,-24.99604 -0.53593,-4.675 -1.41423,-11.00209 -1.95177,-14.0602 C 483.73256,723.85815 483.63187,296 484.875,296 c 0.48125,0 1.14607,-1.35533 1.47737,-3.01185 C 487.02979,289.60106 499.93031,276 502.46552,276 503.30948,276 504,275.6366 504,275.19245 c 0,-0.8295 3.52855,-2.52137 12.78702,-6.13112 6.79723,-2.65014 23.87229,-2.91619 30.44274,-0.47433 8.6128,3.20088 12.36807,4.94961 16.77024,7.80942 5.2094,3.38422 13.73397,12.17272 14.64516,15.0986 0.34342,1.10274 1.01297,2.25606 1.48789,2.56293 0.47492,0.30687 0.97677,53.18187 1.11522,117.5 L 581.5,528.5 l 7.75,0.29206 7.75,0.29207 V 369.9016 210.71906 l 2.25,-4.51007 c 2.91017,-5.83337 9.69997,-12.88604 17.25,-17.91784 C 623.06262,183.91741 631.29661,180 633.92712,180 c 0.92008,0 2.23538,-0.5625 2.92288,-1.25 1.75148,-1.75148 26.54852,-1.75148 28.3,0 0.6875,0.6875 1.8338,1.25 2.54733,1.25 2.20945,0 13.63008,5.765 17.24769,8.70643 7.83402,6.36973 9.97486,8.53088 13.45211,13.57968 l 3.65229,5.30296 0.22529,121.95547 L 702.5,451.5 l 7.75,0.29206 7.75,0.29207 V 302.72989 c 0,-145.07984 0.0548,-149.46693 1.91403,-153.29206 C 722.74676,143.60991 734.70575,132 737.87617,132 c 0.52644,0 1.10716,-0.35767 1.2905,-0.79482 C 739.6795,129.98235 747.83835,126 749.83079,126 c 0.97307,0 2.21525,-0.44604 2.7604,-0.99119 1.33999,-1.33999 9.45814,-3.04708 17.56319,-3.69321 6.91878,-0.55156 17.03908,1.33938 22.5485,4.2131 1.53842,0.80244 3.35962,1.46175 4.04712,1.46514 0.6875,0.003 1.25,0.40738 1.25,0.89775 0,0.49038 1.12843,1.17481 2.50763,1.52097 C 803.47448,130.15719 816,142.24731 816,144.3664 c 0,0.80681 0.5625,1.65442 1.25,1.88356 0.992,0.33063 1.30339,35.02332 1.50867,168.08333 L 819.01734,482 H 827.00867 835 V 338.15364 c 0,-133.10089 0.12636,-144.09966 1.69158,-147.23721 C 838.68966,186.91117 851.49215,174 853.46562,174 c 0.75224,0 1.51771,-0.38677 1.70105,-0.85948 C 855.66283,171.86121 870.40274,165 872.65493,165 c 1.06979,0 2.50757,-0.5625 3.19507,-1.25 1.63722,-1.63722 28.19628,-1.76077 30.24631,-0.14071 0.77203,0.6101 2.87327,1.38777 4.66942,1.72814 4.07532,0.77228 13.17168,5.03695 19.17646,8.99056 5.56164,3.66184 13.71575,12.00525 14.64529,14.98529 0.37514,1.2027 1.18393,2.50779 1.7973,2.90021 0.81271,0.51995 1.18472,54.36491 1.37143,198.5 l 0.25621,197.78651 10.74379,-0.30604 c 9.6653,-0.27531 10.91886,-0.52627 12.48778,-2.5 0.95919,-1.20668 2.87169,-3.40276 4.25,-4.88019 1.3783,-1.47742 2.50601,-3.06471 2.50601,-3.52731 0,-0.4626 1.26591,-1.9538 2.81314,-3.31378 1.54722,-1.35997 3.23472,-3.20682 3.75,-4.10409 1.1593,-2.01876 6.85058,-9.04401 11.18208,-13.80305 1.78487,-1.96105 3.24737,-3.86842 3.25,-4.23862 0.003,-0.37019 1.35478,-2.02307 3.00478,-3.67307 1.65,-1.65 3,-3.38441 3,-3.85424 0,-0.46983 1.2659,-1.96695 2.8131,-3.32693 1.5473,-1.35997 3.2348,-3.20682 3.75,-4.10409 1.1593,-2.01876 6.8506,-9.04401 11.1821,-13.80305 1.7849,-1.96105 3.2474,-3.84009 3.25,-4.17566 0,-0.33557 1.4673,-2.23617 3.2548,-4.22355 4.2457,-4.72045 8.1866,-9.44261 10.9881,-13.16633 2.8478,-3.78541 5.3948,-6.83959 9.5071,-11.40067 1.7849,-1.97963 3.2474,-3.90221 3.25,-4.27241 0,-0.37019 1.3548,-2.02307 3.0048,-3.67307 1.65,-1.65 3,-3.30003 3,-3.66674 0,-1.22108 10.796,-12.638 14.172,-14.98711 9.469,-6.58875 18.8962,-9.67651 31.2717,-10.24272 12.0645,-0.55197 20.0258,1.86861 30.0591,9.13925 3.7907,2.74687 8.4972,8.65849 8.4972,10.67281 0,0.51186 0.4197,0.93066 0.9326,0.93066 0.5129,0 1.2486,1.0125 1.6348,2.25 0.3862,1.2375 1.0136,2.475 1.3943,2.75 2.2361,1.61549 6.346,19.98353 6.3769,28.5 0.022,5.92245 -2.2054,17.5 -3.366,17.5 -0.4475,0 -1.1102,1.35 -1.4726,3 -0.3624,1.65 -1.0244,3 -1.471,3 -0.4467,0 -1.0945,1.125 -1.4396,2.5 -0.3451,1.375 -1.0332,2.5 -1.529,2.5 -0.4958,0 -1.198,1.35 -1.5604,3 -0.3624,1.65 -1.0207,3 -1.4628,3 -0.4422,0 -1.0926,0.7875 -1.4455,1.75 -0.8442,2.30302 -3.74,7.61554 -4.497,8.25 -0.3281,0.275 -1.6849,2.75 -3.0151,5.5 -1.3302,2.75 -2.6802,5.225 -3,5.5 -0.3198,0.275 -1.6273,2.525 -2.9056,5 -3.4534,6.68642 -5.5989,10.43893 -6.2892,11 -0.3384,0.275 -0.9312,1.5125 -1.3174,2.75 -0.3862,1.2375 -1.0861,2.25 -1.5553,2.25 -0.4693,0 -1.1497,1.35 -1.5121,3 -0.3624,1.65 -0.9633,3 -1.3353,3 -0.7829,0 -5.1647,9.24076 -5.1647,10.89178 0,0.60952 -0.3469,1.10822 -0.7709,1.10822 -0.424,0 -1.8865,2.12951 -3.25,4.73225 -1.3635,2.60273 -3.0416,5.33488 -3.7291,6.07143 -0.6875,0.73655 -1.25,1.98203 -1.25,2.76775 0,0.78571 -0.3433,1.42857 -0.7629,1.42857 -0.7573,0 -1.3727,0.95983 -4.2167,6.57743 -0.8139,1.60741 -1.7139,3.14757 -2,3.42257 -0.2862,0.275 -1.6454,2.75 -3.0204,5.5 -1.375,2.75 -2.725,5.225 -3,5.5 -0.275,0.275 -1.4,2.26691 -2.5,4.42648 -1.1,2.15956 -2.45,4.41755 -3,5.01775 -0.55,0.6002 -2.125,3.33329 -3.5,6.07352 -1.375,2.74024 -2.7768,5.20725 -3.1152,5.48225 -0.3384,0.275 -0.9615,1.625 -1.3848,3 -0.4233,1.375 -1.0464,2.725 -1.3848,3 -0.8241,0.66977 -2.8508,3.92948 -4.3521,7 -0.6723,1.375 -1.4566,2.725 -1.7427,3 -0.2862,0.275 -1.6454,2.75 -3.0204,5.5 -1.375,2.75 -2.725,5.225 -3,5.5 -0.275,0.275 -1.6156,2.6375 -2.9791,5.25 -1.3635,2.6125 -2.7903,4.75 -3.1706,4.75 -0.3802,0 -0.9879,1.35 -1.3503,3 -0.3624,1.65 -1.0244,3 -1.471,3 -0.4467,0 -1.0945,1.125 -1.4396,2.5 -0.3451,1.375 -1.0332,2.5 -1.529,2.5 -0.4958,0 -1.198,1.35 -1.5604,3 -0.3624,1.65 -1.0207,3 -1.4628,3 -0.4422,0 -1.0926,0.7875 -1.4455,1.75 -0.8433,2.30062 -3.7395,7.6149 -4.4961,8.25 -0.3276,0.275 -1.7206,2.75 -3.0956,5.5 -1.375,2.75 -2.725,5.225 -3,5.5 -0.275,0.275 -1.4,2.3 -2.5,4.5 -1.1,2.2 -3.1809,5.8 -4.6243,8 -1.4434,2.2 -2.9362,5.0125 -3.3174,6.25 -0.3812,1.2375 -1.077,2.25 -1.5462,2.25 -0.4693,0 -1.1497,1.35 -1.5121,3 -0.3624,1.65 -1.0207,3 -1.4628,3 -0.4422,0 -1.0926,0.7875 -1.4455,1.75 -0.8433,2.30062 -3.7395,7.6149 -4.4961,8.25 -0.3276,0.275 -1.7206,2.75 -3.0956,5.5 -1.375,2.75 -2.725,5.22626 -3,5.5028 -0.4741,0.47679 -3.4921,5.91736 -6.93187,12.49644 -0.86247,1.64959 -1.84498,3.22459 -2.18335,3.5 -0.33837,0.27542 -0.93119,1.51326 -1.31739,2.75076 -0.38619,1.2375 -1.08609,2.25 -1.55532,2.25 -0.46924,0 -1.14967,1.35 -1.51207,3 -0.3624,1.65 -1.07316,3 -1.57946,3 -0.50629,0 -0.92054,0.50001 -0.92054,1.11112 0,0.61112 -2.25,4.83612 -5,9.38888 -2.75,4.55276 -5,8.77776 -5,9.38888 0,0.61111 -0.45,1.11112 -1,1.11112 -0.55,0 -1,0.68912 -1,1.53138 0,0.84227 -0.63439,1.77483 -1.40975,2.07236 -0.77537,0.29754 -1.68394,1.63341 -2.01905,2.96862 C 974.23608,837.90756 973.52047,839 972.98095,839 972.44143,839 972,839.68912 972,840.53138 c 0,0.84227 -0.65787,1.78384 -1.46193,2.09239 -0.80407,0.30854 -1.75912,1.49733 -2.12234,2.64174 -0.36322,1.14441 -1.49599,2.97764 -2.51727,4.07385 -1.02127,1.09621 -3.10372,3.83081 -4.62766,6.07688 -1.52394,2.24607 -3.2208,4.5836 -3.7708,5.19451 -0.89987,0.99953 -3.78006,4.52575 -8.74922,10.7117 C 942.54858,879.04335 917.71621,905 916.53192,905 c -0.31106,0 -2.4705,1.92987 -4.79874,4.28859 -2.32825,2.35873 -5.80818,5.46285 -7.73318,6.89806 -1.925,1.43521 -4.49368,3.55534 -5.70819,4.71141 -1.2145,1.15607 -2.677,2.10194 -3.25,2.10194 -0.57299,0 -1.04181,0.40868 -1.04181,0.90818 0,0.49949 -2.0242,2.18699 -4.49821,3.75 -2.47402,1.563 -4.49902,3.17932 -4.5,3.59182 -9.9e-4,0.4125 -0.63929,0.75 -1.41846,0.75 -0.77916,0 -1.56666,0.3375 -1.75,0.75 -0.48681,1.09533 -6.58785,5.25 -7.7095,5.25 -0.52644,0 -1.10716,0.36123 -1.2905,0.80274 C 872.37556,939.90515 860.50577,947 859.11919,947 858.50364,947 858,947.3608 858,947.80177 c 0,0.44098 -4.8375,3.19929 -10.75,6.12959 -10.24387,5.07698 -13.01844,6.36238 -20.4854,9.49047 -1.79553,0.75218 -4.3896,1.85672 -5.7646,2.45451 -4.26313,1.85343 -20.72213,7.12656 -25.2221,8.08064 -2.35284,0.49886 -6.3029,1.39788 -8.7779,1.99783 -2.475,0.59996 -6.525,1.56918 -9,2.15384 -4.17372,0.98593 -17.98068,2.24054 -36,3.27123 -4.125,0.23595 -11.55,0.0192 -16.5,-0.4817 z"
       id="path1"
       sodipodi:nodetypes="sssscssssssssssssscsssssssssssssssscscssssssssssssssscccccsssssssscccccsssssssscssssscccsssssssssssscssssssscssssscssscssssssssscssssssssssssssssssssssssssssssssssssssssssssssssssssssssssssssssssssssssssssssssssssssssssssssssssssss" />
  </g>
</svg>
