<?xml version="1.0" encoding="UTF-8" standalone="no"?>
<!-- Created with Inkscape (http://www.inkscape.org/) -->

<svg
   version="1.1"
   id="svg1"
   width="195.84"
   height="195.84"
   viewBox="0 0 195.84 195.84"
   sodipodi:docname="Peaton.svg"
   inkscape:version="1.4 (86a8ad7, 2024-10-11)"
   xmlns:inkscape="http://www.inkscape.org/namespaces/inkscape"
   xmlns:sodipodi="http://sodipodi.sourceforge.net/DTD/sodipodi-0.dtd"
   xmlns="http://www.w3.org/2000/svg"
   xmlns:svg="http://www.w3.org/2000/svg">
  <defs
     id="defs1" />
  <sodipodi:namedview
     id="namedview1"
     pagecolor="#505050"
     bordercolor="#ffffff"
     borderopacity="1"
     inkscape:showpageshadow="0"
     inkscape:pageopacity="0"
     inkscape:pagecheckerboard="1"
     inkscape:deskcolor="#505050"
     showgrid="false"
     inkscape:zoom="2.8237337"
     inkscape:cx="97.919998"
     inkscape:cy="126.25128"
     inkscape:window-width="1366"
     inkscape:window-height="697"
     inkscape:window-x="-8"
     inkscape:window-y="-8"
     inkscape:window-maximized="1"
     inkscape:current-layer="g1" />
  <g
     inkscape:groupmode="layer"
     inkscape:label="Image"
     id="g1">
    <path
       style="fill:#000000"
       d="m 114.56956,166.68397 c -1.56254,-0.62361 -2.98005,-2.00469 -3.70496,-3.60974 -0.58772,-1.3013 -1.14957,-4.64982 -2.75789,-16.4365 l -2.01981,-14.80226 -6.08345,-4.86929 c -9.3266,-7.46516 -13.139243,-11.53386 -15.473114,-16.5123 -0.762221,-1.62592 -0.849163,-2.17864 -0.839005,-5.33388 l 0.01133,-3.52 3.21585,-10.240002 c 1.768717,-5.632 3.173438,-10.294179 3.121602,-10.360398 -0.240376,-0.307071 -6.831651,2.632042 -6.976329,3.110812 -0.08802,0.291272 -1.542027,5.413461 -3.231129,11.38264 -1.689102,5.969178 -3.265591,11.225178 -3.503308,11.679998 -1.447444,2.76937 -5.312084,4.4025 -8.430798,3.56271 -1.627037,-0.43811 -3.698957,-2.21002 -4.561727,-3.90119 -1.165441,-2.28445 -0.916106,-3.70343 3.197423,-18.1968 2.097837,-7.391394 4.131573,-13.952339 4.519412,-14.579877 0.38784,-0.627538 1.227428,-1.481391 1.865751,-1.897452 1.563647,-1.01919 26.629847,-11.013249 28.724289,-11.452563 2.0627,-0.432655 5.02843,0.288558 6.92647,1.684394 2.39119,1.758496 4.06983,4.822431 4.06983,7.428443 0,1.221988 -5.82561,22.091061 -8.33523,29.859283 -1.27305,3.940542 -2.21166,7.562682 -2.22004,8.567152 -0.008,0.93979 2.37419,3.22862 7.14563,6.86603 5.57336,4.24874 9.11452,7.5796 10.1998,9.59405 0.63327,1.17546 0.98053,2.6517 1.48968,6.33277 0.36516,2.64 1.10123,7.93399 1.63572,11.76443 1.68243,12.05715 2.18323,17.11878 1.84885,18.68657 -0.39367,1.84579 -1.96934,3.87284 -3.73474,4.80462 -1.5237,0.80421 -4.57187,0.99826 -6.10011,0.38835 z m -52.009561,-0.57193 c -2.694573,-1.25023 -4.32,-3.84465 -4.32,-6.89536 0,-1.59671 0.283999,-2.31798 2.996554,-7.61028 3.330365,-6.49768 8.364395,-16.34747 15.253897,-29.8464 2.515122,-4.928 4.641398,-9.032 4.725058,-9.12 0.08366,-0.088 0.205213,-0.0135 0.270116,0.16545 0.52605,1.45078 3.433592,5.07799 6.460137,8.05914 l 3.639181,3.58459 -4.632232,9.05541 c -2.547728,4.98047 -7.050652,13.80741 -10.006498,19.61541 -3.82067,7.50731 -5.711887,10.88722 -6.542182,11.69195 -1.961702,1.9013 -5.3411,2.46141 -7.844031,1.30009 z m 66.155391,-56.02532 c -0.57454,-0.13628 -1.65454,-0.64852 -2.4,-1.13832 -2.25362,-1.48073 -16.84732,-12.004098 -17.00825,-12.264482 -0.13567,-0.219522 4.04811,-14.307638 4.33251,-14.588924 0.11666,-0.115383 15.75604,10.957459 20.28035,14.358695 2.75024,2.067551 3.68,3.694701 3.68,6.440331 0,3.40283 -1.95859,6.05749 -5.17357,7.01224 -1.80657,0.53649 -2.14134,0.55277 -3.71104,0.18046 z M 106.56,56.738926 C 98.755123,55.43242 93.368825,48.133654 94.658665,40.611885 c 0.812091,-4.735749 3.73181,-8.625472 7.964815,-10.61093 1.86124,-0.873 2.61687,-1.038596 5.21652,-1.143191 2.4966,-0.10045 3.40705,0.0017 5.09346,0.571372 9.9047,3.345931 12.8368,15.464349 5.58195,23.070302 -3.09221,3.241858 -7.84561,4.927452 -11.95541,4.239488 z"
       id="path1" />
  </g>
</svg>
